<svg viewBox="0 0 19 18" fill="none" xmlns="http://www.w3.org/2000/svg">
<g id='account-icon'>
<path d="M9.41294 8.99922C10.7384 8.99922 11.8129 7.9247 11.8129 6.59922C11.8129 5.27374 10.7384 4.19922 9.41294 4.19922C8.08746 4.19922 7.01294 5.27374 7.01294 6.59922C7.01294 7.9247 8.08746 8.99922 9.41294 8.99922Z" stroke="black" stroke-width="1.5"/>
<path d="M9.41309 17C13.8314 17 17.4131 13.4183 17.4131 9C17.4131 4.58172 13.8314 1 9.41309 1C4.99481 1 1.41309 4.58172 1.41309 9C1.41309 13.4183 4.99481 17 9.41309 17Z" stroke="black" stroke-width="1.5"/>
<path d="M14.1884 15.4004C14.0611 13.0872 13.3528 11.4004 9.41301 11.4004C5.47326 11.4004 4.76502 13.0872 4.6377 15.4004" stroke="black" stroke-width="1.5" stroke-linecap="round"/>
</g>
</svg>
