<svg viewBox="0 0 20 18" fill="none" xmlns="http://www.w3.org/2000/svg">
<path id='cart-icon' d="M4.88217 2.77778H19L17.0792 9H5.91644M18.0396 12.5556H6.51504L4.59428 1H1.71313M7.47542 16.1111C7.47542 16.602 7.04544 17 6.51504 17C5.98464 17 5.55466 16.602 5.55466 16.1111C5.55466 15.6202 5.98464 15.2222 6.51504 15.2222C7.04544 15.2222 7.47542 15.6202 7.47542 16.1111ZM18.0396 16.1111C18.0396 16.602 17.6097 17 17.0792 17C16.5488 17 16.1189 16.602 16.1189 16.1111C16.1189 15.6202 16.5488 15.2222 17.0792 15.2222C17.6097 15.2222 18.0396 15.6202 18.0396 16.1111Z" stroke="black" stroke-width="1.5" stroke-linecap="round" stroke-linejoin="round"/>
</svg>
