<svg viewBox="0 0 22 22" fill="none" xmlns="http://www.w3.org/2000/svg">
<g id='coins-icon'>
  <path d="M7.15388 5.71003C10.5586 5.71003 13.3188 4.65566 13.3188 3.35502C13.3188 2.05438 10.5586 1 7.15388 1C3.74912 1 0.989014 2.05438 0.989014 3.35502C0.989014 4.65566 3.74912 5.71003 7.15388 5.71003Z" stroke="#FFB901" stroke-linecap="round"/>
<path d="M13.3228 6.41406C13.3228 7.71292 10.5604 8.76908 7.15388 8.76908C3.74741 8.76908 0.989014 7.71292 0.989014 6.41406" stroke="#FFB901" stroke-linecap="round"/>
<path d="M8.89965 11.6441C8.73763 11.6441 7.31995 11.6441 7.15388 11.6441C3.74741 11.6441 0.989014 10.5879 0.989014 9.28906" stroke="#FFB901" stroke-linecap="round"/>
<path d="M7.89918 14.5972C7.65615 14.5972 7.40501 14.5972 7.15388 14.5972C3.74741 14.5972 0.989014 13.5455 0.989014 12.2422" stroke="#FFB901" stroke-linecap="round"/>
<path d="M8.21917 17.53C7.86501 17.5651 7.5093 17.5771 7.15388 17.566C3.74741 17.566 0.989014 16.5098 0.989014 15.2109" stroke="#FFB901" stroke-linecap="round"/>
<path d="M0.989014 15.2327V3.36328" stroke="#FFB901" stroke-linecap="round"/>
<path d="M13.3228 10.1059V3.35547" stroke="#FFB901" stroke-linecap="round"/>
<path d="M14.388 15.0733C17.7928 15.0733 20.5529 14.0189 20.5529 12.7183C20.5529 11.4177 17.7928 10.3633 14.388 10.3633C10.9833 10.3633 8.22314 11.4177 8.22314 12.7183C8.22314 14.0189 10.9833 15.0733 14.388 15.0733Z" stroke="#FFB901" stroke-linecap="round"/>
<path d="M20.5528 15.7773C20.5528 17.0807 17.7944 18.1324 14.3879 18.1324C10.9814 18.1324 8.21899 17.0807 8.21899 15.7773" stroke="#FFB901" stroke-linecap="round"/>
<path d="M20.5528 18.6406C20.5528 19.944 17.7944 21.0001 14.3879 21.0001C10.9814 21.0001 8.21899 19.9485 8.21899 18.6406" stroke="#FFB901" stroke-linecap="round"/>
<path d="M8.21899 18.6035V12.3789" stroke="#FFB901" stroke-linecap="round"/>
<path d="M11.0972 19.8678V16.8184" stroke="#FFB901" stroke-linecap="round"/>
</g>
</svg>
