<svg viewBox="0 0 14 13" fill="none" xmlns="http://www.w3.org/2000/svg">
<path id='whatsapp-icon' d="M11.3904 1.88503C10.7934 1.28494 10.0828 0.809264 9.29995 0.485655C8.51703 0.162046 7.67743 -0.00302125 6.83001 4.18617e-05C5.69717 0.00114686 4.58442 0.299203 3.60331 0.86436C2.6222 1.42952 1.80715 2.24194 1.23975 3.22026C0.672361 4.19859 0.372565 5.3085 0.370366 6.43876C0.368176 7.56911 0.663672 8.68012 1.22726 9.66064L0.315186 13L3.73547 12.1063C4.67992 12.6305 5.74114 12.9099 6.82187 12.9188C8.53991 12.9188 10.1884 12.2418 11.4085 11.0351C12.6286 9.82842 13.3216 8.18969 13.3367 6.47565C13.331 5.62033 13.1561 4.77456 12.8221 3.98681C12.4881 3.19905 12.0016 2.48482 11.3904 1.88503ZM6.83001 11.8056C5.8672 11.8063 4.92199 11.5481 4.09379 11.0581L3.89834 10.9363L1.8706 11.4725L2.40807 9.49814L2.27778 9.29501C1.58497 8.17921 1.3264 6.84859 1.55106 5.55525C1.77573 4.26196 2.46802 3.09578 3.49678 2.27766C4.52556 1.45952 5.81932 1.04626 7.13303 1.11616C8.44675 1.18605 9.68921 1.73425 10.6249 2.65691C11.6477 3.65481 12.2332 5.016 12.2536 6.44315C12.2407 7.86981 11.6636 9.23367 10.6479 10.238C9.63221 11.2422 8.26002 11.8057 6.83001 11.8056ZM9.76983 7.7919C9.60696 7.71065 8.81704 7.32065 8.67045 7.2719C8.52387 7.22315 8.40986 7.19065 8.30399 7.35315C8.14471 7.57098 7.97337 7.77979 7.79095 7.97877C7.70137 8.09252 7.60365 8.10064 7.44078 7.97877C6.51217 7.61266 5.73854 6.93829 5.25017 6.0694C5.07915 5.78503 5.41304 5.80128 5.72249 5.19191C5.74538 5.14795 5.75727 5.0992 5.75727 5.04972C5.75727 5.00024 5.74538 4.95149 5.72249 4.90753C5.72249 4.82627 5.35603 4.03003 5.22574 3.71315C5.09544 3.39628 4.96514 3.44503 4.85928 3.4369H4.54168C4.45939 3.43816 4.37832 3.45694 4.30389 3.49197C4.22946 3.52699 4.16338 3.57747 4.11007 3.64003C3.92735 3.8173 3.78483 4.03159 3.69211 4.26845C3.5994 4.50531 3.55865 4.75924 3.5726 5.01316C3.62366 5.62099 3.85309 6.2003 4.23223 6.67878C4.92622 7.71536 5.8773 8.55507 6.99288 9.11627C7.578 9.45703 8.25798 9.59954 8.93105 9.52251C9.15516 9.47815 9.36746 9.38723 9.55403 9.25561C9.74068 9.12407 9.89744 8.95474 10.0141 8.75877C10.1223 8.51957 10.1563 8.25364 10.1119 7.99502C10.0386 7.91377 9.9327 7.87315 9.76983 7.7919Z" fill="currentColor"/>
</svg>
